<?xml version="1.0" encoding="UTF-8" standalone="no"?>
<svg width="180" height="180" viewBox="0 0 180 180" xmlns="http://www.w3.org/2000/svg">
  <defs>
    <linearGradient id="grad1" x1="0%" y1="0%" x2="100%" y2="100%">
      <stop offset="0%" style="stop-color:#8a56ff;stop-opacity:1" />
      <stop offset="100%" style="stop-color:#6a3fc9;stop-opacity:1" />
    </linearGradient>
    <filter id="glow" x="-50%" y="-50%" width="200%" height="200%">
      <feGaussianBlur stdDeviation="5" result="blur" />
      <feComposite in="SourceGraphic" in2="blur" operator="over" />
    </filter>
  </defs>
  
  <!-- Background Circle -->
  <circle cx="90" cy="90" r="80" fill="url(#grad1)" />
  
  <!-- Glow Effect -->
  <circle cx="90" cy="90" r="75" fill="none" stroke="#a67dff" stroke-width="2" filter="url(#glow)" />
  
  <!-- Letter R -->
  <path d="M60,50 L60,130 L80,130 L80,95 L95,95 L110,130 L135,130 L115,90 C125,85 130,75 130,65 C130,55 120,50 110,50 Z M80,70 L80,70 L100,70 C105,70 110,65 110,60 C110,55 105,50 100,50 L80,50 Z" 
        fill="white" />
  
  <!-- Shield Icon -->
  <path d="M90,140 L65,125 C65,105 65,85 90,65 C115,85 115,105 115,125 Z" 
        fill="none" stroke="white" stroke-width="3" />
  
  <!-- Scan Lines -->
  <line x1="70" y1="100" x2="110" y2="100" stroke="white" stroke-width="2" />
  <line x1="75" y1="110" x2="105" y2="110" stroke="white" stroke-width="2" />
  <line x1="80" y1="120" x2="100" y2="120" stroke="white" stroke-width="2" />
</svg>
